# xmcd CD database file
#
# Track frame offsets:
#	150
#	27894
#	49617
#	71249
#	93642
#	114505
#	137943
#	164250
#	182500
#	204821
#
# Disc length: 3018 seconds
#
# Revision: 0
# Processed by: cddbd v1.5.2PL0 Copyright (c) Steve Scherf et al.
# Submitted via: CDex 1.51
#
DISCID=860bc80a
DTITLE=Jambedäm - Balance
DYEAR=2008
DGENRE=Jazz
TTITLE0=Nu
TTITLE1=Ha Ha
TTITLE2=Marisa
TTITLE3=Sofia
TTITLE4=Anita
TTITLE5=Carousel
TTITLE6=Balance
TTITLE7=Downhill
TTITLE8=Michi's Blues
TTITLE9=Anti Zombie Funk
EXTD=YEAR: 2008
EXTT0=
EXTT1=
EXTT2=
EXTT3=
EXTT4=
EXTT5=
EXTT6=
EXTT7=
EXTT8=
EXTT9=
PLAYORDER=
